<?xml version="1.0" encoding="UTF-8" standalone="no"?>
<svg
   xmlns:dc="http://purl.org/dc/elements/1.1/"
   xmlns:cc="http://creativecommons.org/ns#"
   xmlns:rdf="http://www.w3.org/1999/02/22-rdf-syntax-ns#"
   xmlns:svg="http://www.w3.org/2000/svg"
   xmlns="http://www.w3.org/2000/svg"
   width="36mm"
   height="37mm"
   viewBox="0 0 36 37"
   version="1.1"
   id="svg1276">
  <defs
     id="defs1270">
    <clipPath
       clipPathUnits="userSpaceOnUse"
       id="clipPath961">
      <path
         d="M 0,500 H 500 V 0 H 0 Z"
         id="path959" />
    </clipPath>
  </defs>
  <metadata
     id="metadata1273">
    <rdf:RDF>
      <cc:Work
         rdf:about="">
        <dc:format>image/svg+xml</dc:format>
        <dc:type
           rdf:resource="http://purl.org/dc/dcmitype/StillImage" />
        <dc:title></dc:title>
      </cc:Work>
    </rdf:RDF>
  </metadata>
  <g
     id="layer1">
    <g
       id="g955"
       transform="matrix(0.35277777,0,0,-0.35277777,-14.8271,90.51448)">
      <g
         id="g957"
         clip-path="url(#clipPath961)">
        <g
           id="g963"
           transform="translate(69.9702,184.3262)">
          <path
             d="m 0,0 8.709,4.396 c 9.255,4.674 20.304,4.672 29.558,0 L 46.977,0 c 3.298,-1.666 7.002,-2.279 10.599,-1.846 1.153,7.389 -0.079,15.296 -4.363,22.605 L 23.488,71.475 -6.237,20.759 C -10.521,13.45 -11.754,5.543 -10.601,-1.846 -7.002,-2.28 -3.299,-1.667 0,0"
             style="fill:#27aae1;fill-opacity:1;fill-rule:nonzero;stroke:none"
             id="path965" />
        </g>
        <g
           id="g967"
           transform="translate(110.4683,168.4199)">
          <path
             d="m 0,0 -8.65,4.365 c -5.235,2.643 -11.485,2.643 -16.72,0 l -8.831,-4.455 c -3.026,-1.431 -6.127,-2.344 -9.258,-2.744 6.157,-7.425 15.438,-12.377 26.449,-12.377 11.199,0 20.605,5.126 26.758,12.763 C 6.762,-2.155 3.759,-1.454 0.785,-0.347 0.537,-0.256 0.265,-0.138 0,0"
             style="fill:#27aae1;fill-opacity:1;fill-rule:nonzero;stroke:none"
             id="path969" />
        </g>
        <g
           id="g971"
           transform="translate(142.7119,181.2842)">
          <path
             d="m 0,0 c -0.541,0.717 -1.516,0.944 -2.318,0.54 l -4.355,-2.199 c -6.721,-3.393 -14.744,-3.393 -21.465,0 l -8.711,4.397 c -7.767,3.922 -17.042,3.922 -24.81,0 l -8.71,-4.397 c -6.721,-3.393 -14.745,-3.393 -21.465,0 L -96.19,0.54 c -0.801,0.404 -1.776,0.178 -2.316,-0.538 -0.541,-0.716 -0.492,-1.716 0.116,-2.376 0.099,-0.107 7.814,-8.298 19.074,-8.298 3.274,0 6.847,0.693 10.619,2.478 l 8.711,4.397 c 6.72,3.393 14.745,3.393 21.465,0 l 8.71,-4.397 c 0.061,-0.032 0.125,-0.059 0.189,-0.083 3.716,-1.383 7.165,-1.93 10.301,-1.929 11.787,10e-4 19.11,7.731 19.201,7.83 C 0.49,-1.717 0.54,-0.716 0,0"
             style="fill:#73d3ff;fill-opacity:1;fill-rule:nonzero;stroke:none"
             id="path973" />
        </g>
      </g>
    </g>
  </g>
</svg>
