<?xml version="1.0" encoding="UTF-8" standalone="no"?>
<svg
   xmlns:dc="http://purl.org/dc/elements/1.1/"
   xmlns:cc="http://creativecommons.org/ns#"
   xmlns:rdf="http://www.w3.org/1999/02/22-rdf-syntax-ns#"
   xmlns:svg="http://www.w3.org/2000/svg"
   xmlns="http://www.w3.org/2000/svg"
   xmlns:sodipodi="http://sodipodi.sourceforge.net/DTD/sodipodi-0.dtd"
   xmlns:inkscape="http://www.inkscape.org/namespaces/inkscape"
   width="49"
   height="49"
   viewBox="0 0 12.964583 12.964583"
   version="1.1"
   id="svg8"
   inkscape:version="1.0.2-2 (e86c870879, 2021-01-15)"
   sodipodi:docname="water_meter_hot.svg">
  <defs
     id="defs2">
    <clipPath
       clipPathUnits="userSpaceOnUse"
       id="clipPath961">
      <path
         d="M 0,500 H 500 V 0 H 0 Z"
         id="path959" />
    </clipPath>
  </defs>
  <sodipodi:namedview
     id="base"
     pagecolor="#ffffff"
     bordercolor="#666666"
     borderopacity="1.0"
     inkscape:pageopacity="0.0"
     inkscape:pageshadow="2"
     inkscape:zoom="1.1263488"
     inkscape:cx="-8.5320299"
     inkscape:cy="31.215958"
     inkscape:document-units="mm"
     inkscape:current-layer="layer1"
     inkscape:document-rotation="0"
     showgrid="false"
     inkscape:window-width="1920"
     inkscape:window-height="1001"
     inkscape:window-x="-9"
     inkscape:window-y="-9"
     inkscape:window-maximized="1"
     units="px" />
  <metadata
     id="metadata5">
    <rdf:RDF>
      <cc:Work
         rdf:about="">
        <dc:format>image/svg+xml</dc:format>
        <dc:type
           rdf:resource="http://purl.org/dc/dcmitype/StillImage" />
        <dc:title></dc:title>
      </cc:Work>
    </rdf:RDF>
  </metadata>
  <g
     inkscape:label="Warstwa 1"
     inkscape:groupmode="layer"
     id="layer1">
    <rect
       style="fill:#d40000;stroke:#ffffff;stroke-width:0.236852;stroke-opacity:1"
       id="rect833"
       width="1.6133298"
       height="3.0601363"
       x="0.25652754"
       y="5.0013356" />
    <rect
       style="fill:#d40000;stroke:#ffffff;stroke-width:0.198418;stroke-opacity:1"
       id="rect835"
       width="1.2784729"
       height="2.7100675"
       x="1.3538387"
       y="5.1763697" />
    <rect
       style="fill:#d40000;stroke:#ffffff;stroke-width:0.236852;stroke-opacity:1"
       id="rect841"
       width="1.6133298"
       height="3.0601363"
       x="-12.768819"
       y="-8.061471"
       transform="scale(-1)" />
    <rect
       style="fill:#d40000;stroke:#ffffff;stroke-width:0.198418;stroke-opacity:1"
       id="rect843"
       width="1.2784729"
       height="2.7100675"
       x="-11.67151"
       y="-7.8864374"
       transform="scale(-1)" />
    <circle
       style="fill:#d40000;stroke:#ffffff;stroke-width:0.195579;stroke-opacity:1"
       id="path837"
       cx="6.4757924"
       cy="6.2442536"
       r="4.2506475" />
    <rect
       style="fill:#ffffff;stroke:#ffffff;stroke-width:0.168823;stroke-miterlimit:4;stroke-dasharray:none;stroke-opacity:1"
       id="rect845"
       width="0.82954174"
       height="1.3422267"
       x="4.236361"
       y="4.0672722" />
    <path
       style="font-style:normal;font-variant:normal;font-weight:normal;font-stretch:normal;font-size:10.5833px;line-height:1.25;font-family:'Lucida Bright';-inkscape-font-specification:'Lucida Bright';fill:#ffffff;fill-opacity:1;stroke:none;stroke-width:0.0893352"
       d="M 4.2041242,6.4568155 4.2526306,6.8494023 4.0669805,6.5000868 3.8541115,6.6492695 4.1789987,7.0095773 3.7295305,6.802292 3.6492686,7.0465677 4.0706446,7.130843 3.6637506,7.2046491 3.7380804,7.4506704 4.1371229,7.2754893 3.8307306,7.6066577 4.0401103,7.7584579 4.2711258,7.3438871 4.2081375,7.8052197 4.4667208,7.8094099 4.423624,7.3915235 4.6281177,7.7584609 4.8374974,7.6066608 4.5187169,7.2638018 4.9482939,7.4719603 5.0325691,7.2275093 4.5888589,7.1325906 5.0189593,7.0465708 4.9386974,6.802295 4.5630356,6.975382 4.859831,6.6646277 4.6539411,6.5107333 4.404605,6.9385661 4.4641038,6.4568185 Z"
       id="text857" />
    <rect
       style="fill:#ffffff;stroke:#ffffff;stroke-width:0.168823;stroke-miterlimit:4;stroke-dasharray:none;stroke-opacity:1"
       id="rect876"
       width="0.82954174"
       height="1.3422267"
       x="5.4433508"
       y="4.0672722" />
    <rect
       style="fill:#ffffff;stroke:#ffffff;stroke-width:0.168823;stroke-miterlimit:4;stroke-dasharray:none;stroke-opacity:1"
       id="rect878"
       width="0.82954174"
       height="1.3422267"
       x="6.6616211"
       y="4.0672722" />
    <rect
       style="fill:#ffffff;stroke:#ffffff;stroke-width:0.168823;stroke-miterlimit:4;stroke-dasharray:none;stroke-opacity:1"
       id="rect880"
       width="0.82954174"
       height="1.3422267"
       x="7.8573313"
       y="4.0672722" />
    <g
       id="path922"
       style="opacity:1"
       transform="matrix(0.33764509,0,0,0.33764509,-4.0662225,-10.514635)">
      <path
         style="color:#000000;font-style:normal;font-variant:normal;font-weight:normal;font-stretch:normal;font-size:medium;line-height:normal;font-family:sans-serif;font-variant-ligatures:normal;font-variant-position:normal;font-variant-caps:normal;font-variant-numeric:normal;font-variant-alternates:normal;font-variant-east-asian:normal;font-feature-settings:normal;font-variation-settings:normal;text-indent:0;text-align:start;text-decoration:none;text-decoration-line:none;text-decoration-style:solid;text-decoration-color:#000000;letter-spacing:normal;word-spacing:normal;text-transform:none;writing-mode:lr-tb;direction:ltr;text-orientation:mixed;dominant-baseline:auto;baseline-shift:baseline;text-anchor:start;white-space:normal;shape-padding:0;shape-margin:0;inline-size:0;clip-rule:nonzero;display:inline;overflow:visible;visibility:visible;isolation:auto;mix-blend-mode:normal;color-interpolation:sRGB;color-interpolation-filters:linearRGB;solid-color:#000000;solid-opacity:1;vector-effect:none;fill:#ffffff;fill-opacity:1;fill-rule:nonzero;stroke:none;stroke-width:0.499999;stroke-linecap:butt;stroke-linejoin:miter;stroke-miterlimit:4;stroke-dasharray:none;stroke-dashoffset:0;stroke-opacity:1;color-rendering:auto;image-rendering:auto;shape-rendering:auto;text-rendering:auto;enable-background:accumulate;stop-color:#000000;stop-opacity:1"
         d="m 33.638979,56.50744 c 0,1.461253 -1.18458,2.645833 -2.645833,2.645833 -1.461254,0 -2.645834,-1.18458 -2.645834,-2.645833 0,-1.461253 1.836049,-4.332972 2.645834,-6.086928 0.876601,1.436574 2.645833,4.625675 2.645833,6.086928 z"
         id="path926"
         sodipodi:nodetypes="ssscs" />
      <path
         style="color:#000000;font-style:normal;font-variant:normal;font-weight:normal;font-stretch:normal;font-size:medium;line-height:normal;font-family:sans-serif;font-variant-ligatures:normal;font-variant-position:normal;font-variant-caps:normal;font-variant-numeric:normal;font-variant-alternates:normal;font-variant-east-asian:normal;font-feature-settings:normal;font-variation-settings:normal;text-indent:0;text-align:start;text-decoration:none;text-decoration-line:none;text-decoration-style:solid;text-decoration-color:#000000;letter-spacing:normal;word-spacing:normal;text-transform:none;writing-mode:lr-tb;direction:ltr;text-orientation:mixed;dominant-baseline:auto;baseline-shift:baseline;text-anchor:start;white-space:normal;shape-padding:0;shape-margin:0;inline-size:0;clip-rule:nonzero;display:inline;overflow:visible;visibility:visible;isolation:auto;mix-blend-mode:normal;color-interpolation:sRGB;color-interpolation-filters:linearRGB;solid-color:#000000;solid-opacity:1;vector-effect:none;fill:#d40000;fill-opacity:1;fill-rule:nonzero;stroke:none;stroke-width:0.499999;stroke-linecap:butt;stroke-linejoin:miter;stroke-miterlimit:4;stroke-dasharray:none;stroke-dashoffset:0;stroke-opacity:1;color-rendering:auto;image-rendering:auto;shape-rendering:auto;text-rendering:auto;enable-background:accumulate;stop-color:#000000;stop-opacity:1"
         d="m 29.581683,58.04484 c -0.458819,-0.555924 -0.934047,-1.181095 -0.487209,-2.515412 0.348064,-1.039361 0.454074,-1.179233 0.944942,-2.20086 -0.968936,3.120176 -0.593444,3.492003 0.03639,4.04795 0.629834,0.555947 -0.0353,1.224246 -0.494123,0.668322 z"
         id="path930"
         sodipodi:nodetypes="zsczz" />
    </g>
    <circle
       style="fill:#ffffff;fill-opacity:1;stroke:none;stroke-width:0.168822;stroke-miterlimit:4;stroke-dasharray:none"
       id="path932"
       cx="8.6613159"
       cy="7.1216521"
       r="0.97311634" />
    <path
       id="path936"
       style="fill:#d40000;stroke:none;stroke-width:0.168822;stroke-miterlimit:4;stroke-dasharray:none"
       d="M 9.2823506,6.6418262 8.7683234,6.9791015 A 0.17484435,0.17484435 0 0 0 8.686142,6.9585118 0.17484435,0.17484435 0 0 0 8.5113103,7.1333437 0.17484435,0.17484435 0 0 0 8.686142,7.3081755 0.17484435,0.17484435 0 0 0 8.8609739,7.1333437 0.17484435,0.17484435 0 0 0 8.8501558,7.0729728 Z" />
    <g
       aria-label="0"
       id="text954"
       style="font-style:normal;font-variant:normal;font-weight:normal;font-stretch:normal;font-size:4.71644px;line-height:1.25;font-family:'Tw Cen MT Condensed Extra Bold';-inkscape-font-specification:'Tw Cen MT Condensed Extra Bold, ';fill:#000000;fill-opacity:1;stroke:none;stroke-width:0.117911"
       transform="matrix(0.33764509,0,0,0.33764509,-0.16494787,1.5134743)">
      <path
         d="m 14.262582,7.9333631 q 0.49974,0 0.757671,0.412228 0.260233,0.4122279 0.260233,1.2136543 0,0.7806996 -0.264839,1.1952306 -0.262536,0.414531 -0.753065,0.414531 -0.465195,0 -0.741549,-0.386896 -0.274051,-0.389198 -0.274051,-1.2551069 0,-0.7599733 0.264839,-1.1768071 0.264839,-0.4168339 0.74155,-0.4168339 z M 13.91714,9.5223982 q 0,0.9856618 0.340837,0.9856618 0.184236,0 0.264839,-0.216477 0.08291,-0.21878 0.08291,-0.6931875 0,-0.5227695 -0.08291,-0.7599733 -0.0806,-0.2395067 -0.269445,-0.2395067 -0.336231,0 -0.336231,0.9234827 z"
         style="font-style:normal;font-variant:normal;font-weight:normal;font-stretch:normal;font-family:'Tw Cen MT Condensed Extra Bold';-inkscape-font-specification:'Tw Cen MT Condensed Extra Bold, ';stroke-width:0.117911"
         id="path968" />
    </g>
    <g
       aria-label="0"
       id="text958"
       style="font-style:normal;font-variant:normal;font-weight:normal;font-stretch:normal;font-size:4.71644px;line-height:1.25;font-family:'Tw Cen MT Condensed Extra Bold';-inkscape-font-specification:'Tw Cen MT Condensed Extra Bold, ';fill:#000000;fill-opacity:1;stroke:none;stroke-width:0.117911"
       transform="matrix(0.33764509,0,0,0.33764509,-0.16494787,1.5134743)">
      <path
         d="m 17.837311,7.9333631 q 0.49974,0 0.757671,0.412228 0.260233,0.4122279 0.260233,1.2136543 0,0.7806996 -0.264839,1.1952306 -0.262536,0.414531 -0.753065,0.414531 -0.465195,0 -0.741549,-0.386896 -0.274051,-0.389198 -0.274051,-1.2551069 0,-0.7599733 0.264839,-1.1768071 0.264839,-0.4168339 0.74155,-0.4168339 z m -0.345442,1.5890351 q 0,0.9856618 0.340837,0.9856618 0.184235,0 0.264839,-0.216477 0.08291,-0.21878 0.08291,-0.6931875 0,-0.5227695 -0.08291,-0.7599733 -0.0806,-0.2395067 -0.269445,-0.2395067 -0.336231,0 -0.336231,0.9234827 z"
         style="font-style:normal;font-variant:normal;font-weight:normal;font-stretch:normal;font-family:'Tw Cen MT Condensed Extra Bold';-inkscape-font-specification:'Tw Cen MT Condensed Extra Bold, ';stroke-width:0.117911"
         id="path971" />
    </g>
    <g
       aria-label="0"
       id="text962"
       style="font-style:normal;font-variant:normal;font-weight:normal;font-stretch:normal;font-size:4.71644px;line-height:1.25;font-family:'Tw Cen MT Condensed Extra Bold';-inkscape-font-specification:'Tw Cen MT Condensed Extra Bold, ';fill:#000000;fill-opacity:1;stroke:none;stroke-width:0.117911"
       transform="matrix(0.33764509,0,0,0.33764509,-0.16494787,1.5134743)">
      <path
         d="m 21.44545,7.9333631 q 0.49974,0 0.757671,0.412228 0.260233,0.4122279 0.260233,1.2136543 0,0.7806996 -0.264839,1.1952306 -0.262536,0.414531 -0.753065,0.414531 -0.465195,0 -0.741549,-0.386896 -0.274051,-0.389198 -0.274051,-1.2551069 0,-0.7599733 0.264839,-1.1768071 0.264839,-0.4168339 0.74155,-0.4168339 z m -0.345442,1.5890351 q 0,0.9856618 0.340837,0.9856618 0.184236,0 0.264839,-0.216477 0.08291,-0.21878 0.08291,-0.6931875 0,-0.5227695 -0.08291,-0.7599733 -0.0806,-0.2395067 -0.269445,-0.2395067 -0.336231,0 -0.336231,0.9234827 z"
         style="font-style:normal;font-variant:normal;font-weight:normal;font-stretch:normal;font-family:'Tw Cen MT Condensed Extra Bold';-inkscape-font-specification:'Tw Cen MT Condensed Extra Bold, ';stroke-width:0.117911"
         id="path974" />
    </g>
    <g
       aria-label="0"
       id="text966"
       style="font-style:normal;font-variant:normal;font-weight:normal;font-stretch:normal;font-size:4.71644px;line-height:1.25;font-family:'Tw Cen MT Condensed Extra Bold';-inkscape-font-specification:'Tw Cen MT Condensed Extra Bold, ';fill:#000000;fill-opacity:1;stroke:none;stroke-width:0.117911"
       transform="matrix(0.33764509,0,0,0.33764509,-0.16494787,1.5134743)">
      <path
         d="m 24.986773,7.9333631 q 0.49974,0 0.757671,0.412228 0.260233,0.4122279 0.260233,1.2136543 0,0.7806996 -0.264839,1.1952306 -0.262537,0.414531 -0.753065,0.414531 -0.465196,0 -0.741549,-0.386896 -0.274051,-0.389198 -0.274051,-1.2551069 0,-0.7599733 0.264839,-1.1768071 0.264839,-0.4168339 0.741549,-0.4168339 z m -0.345442,1.5890351 q 0,0.9856618 0.340836,0.9856618 0.184236,0 0.264839,-0.216477 0.08291,-0.21878 0.08291,-0.6931875 0,-0.5227695 -0.08291,-0.7599733 -0.0806,-0.2395067 -0.269445,-0.2395067 -0.33623,0 -0.33623,0.9234827 z"
         style="font-style:normal;font-variant:normal;font-weight:normal;font-stretch:normal;font-family:'Tw Cen MT Condensed Extra Bold';-inkscape-font-specification:'Tw Cen MT Condensed Extra Bold, ';stroke-width:0.117911"
         id="path977" />
    </g>
  </g>
</svg>
